# 3ds Max Wavefront OBJ Exporter v0.97b - (c)2007 guruware
# File Created: 04.05.2020 18:18:46

mtllib linna6.mtl

#
# object Box001
#

v  -41.3466 2.1656 54.8961
v  -41.3466 2.1656 -31.5910
v  45.1405 2.1656 -31.5910
v  45.1405 2.1656 54.8961
v  45.1405 58.7390 54.8961
v  -41.3466 58.7390 54.8961
v  45.1405 58.7390 -31.5910
v  -41.3466 58.7390 -31.5910
v  38.4256 58.7390 48.1812
v  -34.6317 58.7390 48.1812
v  38.4256 58.7390 -24.8761
v  -34.6317 58.7390 -24.8761
v  38.4256 16.2501 48.1812
v  -34.6317 16.2501 48.1812
v  38.4256 16.2501 -24.8761
v  -34.6317 16.2501 -24.8761
v  38.4256 4.0526 48.1812
v  -34.6317 4.0526 48.1812
v  38.4256 4.0526 -24.8761
v  -34.6317 4.0526 -24.8761
v  18.7252 4.0526 28.4808
v  -14.9313 4.0526 28.4808
v  18.7252 4.0526 -5.1757
v  -14.9313 4.0526 -5.1757
# 24 vertices

vn -0.5774 -0.5774 0.5774
vn -0.7071 -0.7071 -0.0000
vn 0.7071 -0.7071 -0.0000
vn 0.5774 -0.5774 0.5774
vn 0.5774 0.5774 0.5774
vn -0.5774 0.5774 0.5774
vn 0.7071 0.7071 -0.0000
vn -0.7071 0.7071 -0.0000
vn -0.3015 0.9045 -0.3015
vn 0.3015 0.9045 -0.3015
vn -0.3162 0.9487 -0.0000
vn 0.3162 0.9487 -0.0000
vn -0.7071 0.0000 -0.7071
vn 0.7071 0.0000 -0.7071
vn -1.0000 0.0000 -0.0000
vn 1.0000 0.0000 -0.0000
vn -0.5774 0.5774 -0.5774
vn 0.5774 0.5774 -0.5774
vn 0.0000 1.0000 -0.0000
# 19 vertex normals

vt 1.0000 0.0000 0.0000
vt 1.0000 1.0000 0.0000
vt 0.0000 1.0000 0.0000
vt 0.0000 0.0000 0.0000
# 4 texture coords

o Box001
g Box001
usemtl wire_006135058
s 2
f 1/1/1 2/2/2 3/3/3 4/4/4 
s 8
f 1/4/1 4/1/4 5/2/5 6/3/6 
s 16
f 4/4/4 3/1/3 7/2/7 5/3/5 
s 64
f 2/4/2 1/1/1 6/2/6 8/3/8 
s off
f 6/3/6 5/2/5 9/2/9 10/3/10 
f 5/3/5 7/2/7 11/2/11 9/3/9 
f 7/3/7 8/2/8 12/2/12 11/3/11 
f 8/3/8 6/2/6 10/2/10 12/3/12 
f 10/3/10 9/2/9 13/2/13 14/3/14 
f 9/3/9 11/2/11 15/2/15 13/3/13 
f 12/3/12 10/2/10 14/2/14 16/3/16 
f 14/3/14 13/2/13 17/2/17 18/3/18 
f 13/3/13 15/2/15 19/2/8 17/3/17 
f 16/3/16 14/2/14 18/2/18 20/3/7 
f 18/3/18 17/2/17 21/2/19 22/3/19 
f 17/3/17 19/2/8 23/2/19 21/3/19 
f 19/3/8 20/2/7 24/2/19 23/3/19 
f 20/3/7 18/2/18 22/2/19 24/3/19 
f 21/2/19 23/2/19 24/2/19 22/2/19 
# 19 polygons

#
# object Cylinder003
#

#
# object Cylinder001
#

#
# object Cylinder004
#

#
# object Cylinder005
#

v  20.9368 129.8584 11.2968
v  19.7781 129.8584 4.7255
v  17.0730 129.8584 5.7101
v  18.0580 129.8584 11.2968
v  16.4417 129.8584 -1.0532
v  14.2365 129.8584 0.7972
v  11.3302 129.8584 -5.3423
v  9.8908 129.8584 -2.8492
v  5.0600 129.8584 -7.6244
v  4.5601 129.8584 -4.7895
v  11.3302 129.8584 27.9358
v  16.4417 129.8584 23.6467
v  14.2365 129.8584 21.7963
v  9.8908 129.8584 25.4428
v  19.7781 129.8584 17.8681
v  17.0729 129.8584 16.8835
v  20.9368 76.2841 11.2968
v  19.7781 76.2841 4.7255
v  16.4417 76.2841 -1.0532
v  11.3302 76.2841 -5.3423
v  5.0600 76.2841 -7.6244
v  11.3302 76.2841 27.9358
v  16.4417 76.2841 23.6467
v  19.7781 76.2841 17.8681
v  12.2053 76.2841 7.4818
v  12.8780 76.2841 11.2968
v  12.2053 76.2841 15.1118
v  10.2683 76.2841 18.4667
v  7.3008 76.2841 20.9567
v  3.6606 76.2841 0.3119
v  7.3008 76.2841 1.6369
v  10.2683 76.2841 4.1269
# 32 vertices

vn 0.7423 0.6700 0.0000
vn 0.6976 0.6700 -0.2539
vn -0.5403 0.8182 0.1967
vn -0.5750 0.8182 -0.0000
vn 0.5687 0.6700 -0.4772
vn -0.4405 0.8182 0.3696
vn 0.3712 0.6700 -0.6429
vn -0.2875 0.8182 0.4980
vn 0.2556 0.6644 -0.7023
vn -0.1987 0.8140 0.5459
vn 0.4804 0.6644 0.5725
vn 0.5686 0.6701 0.4771
vn -0.4405 0.8182 -0.3696
vn -0.3734 0.8140 -0.4450
vn 0.6975 0.6701 0.2539
vn -0.5403 0.8182 -0.1967
vn 1.0000 0.0000 0.0000
vn 0.9397 0.0000 -0.3420
vn 0.7660 0.0000 -0.6428
vn 0.5000 0.0000 -0.8660
vn 0.3420 0.0000 -0.9397
vn 0.6428 0.0000 0.7660
vn 0.7660 0.0000 0.6428
vn 0.9397 0.0000 0.3420
vn -0.9148 0.2286 0.3330
vn -0.9735 0.2286 -0.0000
vn -0.9148 0.2286 -0.3330
vn -0.7458 0.2286 -0.6258
vn -0.6263 0.2253 -0.7463
vn -0.3332 0.2253 0.9155
vn -0.4868 0.2286 0.8431
vn -0.7458 0.2286 0.6258
# 32 vertex normals

vt 0.7500 1.0000 1.0000
vt 0.8056 1.0000 1.0000
vt 0.8611 1.0000 1.0000
vt 0.9167 1.0000 1.0000
vt 0.9722 1.0000 1.0000
vt 0.5833 1.0000 1.0000
vt 0.6389 1.0000 1.0000
vt 0.6944 1.0000 1.0000
# 8 texture coords

o Cylinder005
g Cylinder005
usemtl wire_108008136
s off
f 25/5/20 26/6/21 27/6/22 28/5/23 
f 26/6/21 29/7/24 30/7/25 27/6/22 
f 29/7/24 31/8/26 32/8/27 30/7/25 
f 31/8/26 33/9/28 34/9/29 32/8/27 
f 35/10/30 36/11/31 37/11/32 38/10/33 
f 36/11/31 39/12/34 40/12/35 37/11/32 
f 39/12/34 25/5/20 28/5/23 40/12/35 
f 41/5/36 42/6/37 26/6/21 25/5/20 
f 42/6/37 43/7/38 29/7/24 26/6/21 
f 43/7/38 44/8/39 31/8/26 29/7/24 
f 44/8/39 45/9/40 33/9/28 31/8/26 
f 46/10/41 47/11/42 36/11/31 35/10/30 
f 47/11/42 48/12/43 39/12/34 36/11/31 
f 48/12/43 41/5/36 25/5/20 39/12/34 
f 49/6/44 50/5/45 28/5/23 27/6/22 
f 50/5/45 51/12/46 40/12/35 28/5/23 
f 51/12/46 52/11/47 37/11/32 40/12/35 
f 52/11/47 53/10/48 38/10/33 37/11/32 
f 54/9/49 55/8/50 32/8/27 34/9/29 
f 55/8/50 56/7/51 30/7/25 32/8/27 
f 56/7/51 49/6/44 27/6/22 30/7/25 
# 21 polygons

#
# object Pyramid002
#

v  1.8073 125.5417 11.7960
v  -45.1946 58.7390 56.9622
v  48.8092 58.7390 56.9622
v  48.8092 58.7390 -33.3702
v  -45.1946 58.7390 -33.3702
v  1.8073 58.7390 11.7960
# 6 vertices

vn 0.0000 0.8949 0.4462
vn -0.6794 -0.2910 0.6736
vn 0.6794 -0.2910 0.6736
vn 0.6731 -0.7395 -0.0000
vn -0.6731 -0.7395 -0.0000
vn 0.0000 -1.0000 -0.0000
# 6 vertex normals

vt 0.5000 1.0000 0.0000
vt 0.0000 0.0000 0.0000
vt 1.0000 0.0000 0.0000
vt -0.0203 0.0000 0.0000
vt 0.9797 0.0000 0.0000
vt 0.0000 1.0000 0.0000
vt 0.5000 0.5000 0.0000
vt 1.0000 1.0000 0.0000
# 8 texture coords

o Pyramid002
g Pyramid002
usemtl wire_028089177
s 4
f 57/13/52 58/14/53 59/15/54 
s 2
f 57/13/52 59/16/54 60/17/55 
s 32
f 57/13/52 61/16/56 58/17/53 
s 8
f 58/18/53 62/19/57 59/20/54 
f 59/20/54 62/19/57 60/15/55 
f 60/15/55 62/19/57 61/14/56 
f 61/14/56 62/19/57 58/18/53 
# 0 polygons - 7 triangles

