# 3ds Max Wavefront OBJ Exporter v0.97b - (c)2007 guruware
# File Created: 27.04.2020 22:02:33

mtllib maa.mtl

#
# object Plane001
#

v  -46.3035 0.0000 29.2609
v  -46.3035 0.0000 34.2328
v  -40.7970 0.0000 34.2328
v  -40.7970 0.0000 29.2609
v  -35.2905 0.0000 34.2328
v  -35.2905 0.0000 29.2609
v  -29.7839 0.0000 34.2328
v  -29.7839 0.0000 29.2609
v  -24.2774 0.0000 34.2328
v  -24.2774 0.0000 29.2609
v  -18.7708 0.0000 34.2328
v  -18.7708 -1.5940 29.2609
v  -13.2643 0.0000 34.2328
v  -13.2643 0.0000 29.2609
v  -7.7577 0.0000 34.2328
v  -7.7577 0.0000 29.2609
v  -2.2512 0.0000 34.2328
v  -2.2512 0.0000 29.2609
v  3.2554 0.0000 34.2328
v  3.2554 0.0000 29.2609
v  8.7619 0.0000 34.2328
v  8.7619 0.0000 29.2609
v  14.2685 0.0000 34.2328
v  14.2685 0.0000 29.2609
v  19.7750 0.0000 34.2328
v  19.7750 0.0000 29.2609
v  25.2816 0.0000 34.2328
v  25.2816 0.0000 29.2609
v  -46.3035 0.0000 24.2891
v  -40.7970 0.0000 24.2891
v  -35.2905 -1.8725 24.2891
v  -29.7839 0.8226 24.2891
v  -24.2774 0.0000 24.2891
v  -18.7708 0.0000 24.2891
v  -13.2643 -1.4358 24.2891
v  -7.7577 0.0000 24.2891
v  -2.2512 0.0000 24.2891
v  3.2554 0.0000 24.2891
v  8.7619 0.0000 24.2891
v  14.2685 0.6455 24.2891
v  19.7750 0.6455 24.2891
v  25.2816 0.0000 24.2891
v  -46.3035 0.0000 19.3172
v  -40.7970 0.0000 19.3172
v  -35.2905 -1.0499 19.3172
v  -29.7839 0.8226 19.3172
v  -24.2774 0.0000 19.3172
v  -18.7708 0.0000 19.3172
v  -13.2643 -1.4358 19.3172
v  -7.7577 0.0000 19.3172
v  -2.2512 0.0000 19.3172
v  3.2554 -1.3126 19.3172
v  8.7619 -1.3126 19.3172
v  14.2685 -0.6672 19.3172
v  19.7750 0.6455 19.3172
v  25.2816 0.0000 19.3172
v  -46.3035 0.0000 14.3454
v  -40.7970 0.0000 14.3454
v  -35.2905 0.0000 14.3454
v  -29.7839 0.0000 14.3454
v  -24.2774 0.0000 14.3454
v  -18.7708 0.0000 14.3454
v  -13.2643 0.0000 14.3454
v  -7.7577 0.0000 14.3454
v  -2.2512 0.0000 14.3454
v  3.2554 0.0000 14.3454
v  8.7619 0.0000 14.3454
v  14.2685 0.6455 14.3454
v  19.7750 0.6455 14.3454
v  25.2816 0.0000 14.3454
v  -46.3035 0.0000 9.3735
v  -40.7970 0.0000 9.3735
v  -35.2905 0.0000 9.3735
v  -29.7839 0.0000 9.3735
v  -24.2774 0.0000 9.3735
v  -18.7708 0.0000 9.3735
v  -13.2643 0.0000 9.3735
v  -7.7577 0.0000 9.3735
v  -2.2512 0.0000 9.3735
v  3.2554 0.0000 9.3735
v  8.7619 0.0000 9.3735
v  14.2685 0.6455 9.3735
v  19.7750 -0.8848 9.3735
v  25.2816 0.0000 9.3735
v  -46.3035 0.0000 4.4017
v  -40.7970 0.0000 4.4017
v  -35.2905 -1.1317 4.4017
v  -29.7839 -1.1317 4.4017
v  -24.2774 -1.1317 4.4017
v  -18.7708 0.0000 4.4017
v  -13.2643 0.0000 4.4017
v  -7.7577 0.0000 4.4017
v  -2.2512 0.0000 4.4017
v  3.2554 0.0000 4.4017
v  8.7619 0.0000 4.4017
v  14.2685 0.0000 4.4017
v  19.7750 0.0000 4.4017
v  25.2816 0.0000 4.4017
v  -46.3035 0.0000 -0.5702
v  -40.7970 0.0000 -0.5702
v  -35.2905 0.0000 -0.5702
v  -29.7839 0.0000 -0.5702
v  -24.2774 0.0000 -0.5702
v  -18.7708 0.0000 -0.5702
v  -13.2643 -2.0628 -0.5702
v  -7.7577 -0.8539 -0.5702
v  -2.2512 1.2089 -0.5702
v  3.2554 0.0000 -0.5702
v  8.7619 0.0000 -0.5702
v  14.2685 0.0000 -0.5702
v  19.7750 0.3641 -0.5702
v  25.2816 0.0000 -0.5702
v  -46.3035 0.0000 -5.5420
v  -40.7970 0.0000 -5.5420
v  -35.2905 0.0000 -5.5420
v  -29.7839 0.0000 -5.5420
v  -24.2774 0.0000 -5.5420
v  -18.7708 0.0000 -5.5420
v  -13.2643 -2.0628 -5.5420
v  -7.7577 -0.8539 -5.5420
v  -2.2512 1.2089 -5.5420
v  3.2554 0.0000 -5.5420
v  8.7619 0.0000 -5.5420
v  14.2685 -1.4742 -5.5420
v  19.7750 0.3641 -5.5420
v  25.2816 0.0000 -5.5420
v  -46.3035 0.0000 -10.5139
v  -40.7970 0.0000 -10.5139
v  -35.2905 -0.6620 -10.5139
v  -29.7839 0.0000 -10.5139
v  -24.2774 0.0000 -10.5139
v  -18.7708 0.0000 -10.5139
v  -13.2643 0.0000 -10.5139
v  -7.7577 1.2089 -10.5139
v  -2.2512 1.2089 -10.5139
v  3.2554 0.0000 -10.5139
v  8.7619 0.0000 -10.5139
v  14.2685 0.0000 -10.5139
v  19.7750 0.3641 -10.5139
v  25.2816 0.0000 -10.5139
v  -46.3035 0.0000 -15.4857
v  -40.7970 0.0000 -15.4857
v  -35.2905 0.0000 -15.4857
v  -29.7839 0.0000 -15.4857
v  -24.2774 0.0000 -15.4857
v  -18.7708 0.0000 -15.4857
v  -13.2643 0.0000 -15.4857
v  -7.7577 1.2089 -15.4857
v  -2.2512 1.2089 -15.4857
v  3.2554 0.0000 -15.4857
v  8.7619 0.0000 -15.4857
v  14.2685 0.0000 -15.4857
v  19.7750 0.3641 -15.4857
v  25.2816 0.0000 -15.4857
v  -46.3035 0.0000 -20.4576
v  -40.7970 -0.5600 -20.4576
v  -35.2905 0.0000 -20.4576
v  -29.7839 0.9778 -20.4576
v  -24.2774 0.9778 -20.4576
v  -18.7708 0.0000 -20.4576
v  -13.2643 0.0000 -20.4576
v  -7.7577 0.0000 -20.4576
v  -2.2512 0.0000 -20.4576
v  3.2554 0.0000 -20.4576
v  8.7619 0.0000 -20.4576
v  14.2685 0.0000 -20.4576
v  19.7750 0.3641 -20.4576
v  25.2816 0.0000 -20.4576
v  -46.3035 0.0000 -25.4294
v  -40.7970 0.0000 -25.4294
v  -35.2905 0.0000 -25.4294
v  -29.7839 0.0000 -25.4294
v  -24.2774 0.0000 -25.4294
v  -18.7708 0.0000 -25.4294
v  -13.2643 0.0000 -25.4294
v  -7.7577 1.5032 -25.4294
v  -2.2512 0.0000 -25.4294
v  3.2554 0.0000 -25.4294
v  8.7619 0.0000 -25.4294
v  14.2685 0.0000 -25.4294
v  19.7750 1.3293 -25.4294
v  25.2816 0.0000 -25.4294
v  -46.3035 0.0000 -30.4012
v  -40.7970 0.0000 -30.4012
v  -35.2905 0.0000 -30.4012
v  -29.7839 0.0000 -30.4012
v  -24.2774 0.0000 -30.4012
v  -18.7708 0.0000 -30.4012
v  -13.2643 0.0000 -30.4012
v  -7.7577 0.0000 -30.4012
v  -2.2512 0.0000 -30.4012
v  3.2554 0.0000 -30.4012
v  8.7619 0.0000 -30.4012
v  14.2685 0.0000 -30.4012
v  19.7750 0.0000 -30.4012
v  25.2816 0.0000 -30.4012
# 196 vertices

vn 0.0000 1.0000 -0.0000
vn 0.0000 0.9838 -0.1791
vn 0.0000 0.9966 0.0819
vn 0.1404 0.9901 -0.0000
vn 0.0000 0.9523 -0.3053
vn -0.1375 0.9810 -0.1372
vn 0.0000 0.9979 0.0645
vn 0.1631 0.9866 -0.0000
vn -0.0598 0.9939 -0.0922
vn -0.1502 0.9854 0.0798
vn 0.0741 0.9973 -0.0000
vn 0.1243 0.9806 0.1515
vn 0.0000 0.9906 -0.1371
vn -0.1272 0.9919 -0.0000
vn 0.0000 0.9917 -0.1287
vn -0.0581 0.9899 -0.1291
vn -0.0578 0.9963 -0.0639
vn 0.0581 0.9962 0.0642
vn 0.1164 0.9932 -0.0000
vn 0.0941 0.9956 -0.0000
vn -0.0684 0.9806 0.1839
vn -0.0883 0.9928 -0.0806
vn 0.1272 0.9919 -0.0000
vn 0.0000 0.9906 0.1371
vn 0.1167 0.9932 -0.0000
vn 0.1146 0.9934 -0.0000
vn -0.0578 0.9983 -0.0000
vn -0.1728 0.9850 -0.0000
vn -0.0586 0.9983 -0.0000
vn 0.0000 0.9946 0.1039
vn 0.0000 0.9966 -0.0819
vn 0.0000 0.9901 0.1401
vn 0.0000 0.9917 0.1287
vn -0.0581 0.9899 0.1291
vn -0.0576 0.9901 0.1279
vn 0.0574 0.9874 -0.1477
vn 0.0000 0.9937 -0.1117
vn -0.0583 0.9983 -0.0000
vn 0.0764 0.9950 -0.0638
vn 0.0541 0.9968 -0.0593
vn -0.1586 0.9873 -0.0000
vn 0.1012 0.9949 -0.0000
vn 0.0998 0.9950 -0.0000
vn -0.0998 0.9950 -0.0000
vn -0.1012 0.9949 -0.0000
vn 0.0000 0.9807 -0.1954
vn 0.0000 0.9964 -0.0849
vn 0.0000 0.9929 0.1190
vn 0.0000 0.9979 -0.0645
vn 0.0000 0.9922 0.1243
vn 0.0000 0.9937 0.1117
vn 0.1783 0.9840 -0.0000
vn 0.0678 0.9797 -0.1886
vn -0.2814 0.9561 -0.0813
vn -0.0693 0.9908 0.1163
vn 0.1078 0.9942 -0.0000
vn -0.0328 0.9890 -0.1440
vn 0.0000 0.9993 0.0365
vn 0.0660 0.9978 -0.0000
vn 0.0000 0.9978 -0.0661
vn 0.0678 0.9797 0.1886
vn -0.2762 0.9428 0.1869
vn -0.0711 0.9975 -0.0000
vn 0.1304 0.9915 -0.0000
vn -0.0288 0.9996 -0.0000
vn -0.1277 0.9918 -0.0000
vn 0.0598 0.9982 -0.0000
vn -0.0598 0.9982 -0.0000
vn -0.1071 0.9746 0.1969
vn -0.1046 0.9758 0.1919
vn -0.0328 0.9890 0.1440
vn 0.0000 0.9984 -0.0560
vn 0.0000 0.9978 0.0661
vn 0.0000 0.9953 0.0969
vn -0.1078 0.9942 -0.0000
vn -0.1063 0.9874 -0.1174
vn 0.1063 0.9874 -0.1174
vn -0.0330 0.9995 -0.0000
vn -0.1381 0.9904 -0.0000
vn -0.0868 0.9962 -0.0000
vn 0.0868 0.9962 -0.0000
vn 0.0877 0.9961 -0.0000
vn 0.0000 0.9996 0.0275
vn 0.0000 0.9929 -0.1190
vn 0.0000 0.9954 0.0961
vn 0.0000 0.9984 0.0560
vn 0.0000 0.9953 -0.0969
vn -0.1329 0.9911 -0.0000
vn 0.1329 0.9911 -0.0000
vn -0.1181 0.9930 -0.0000
vn 0.0000 0.9994 -0.0336
vn 0.2347 0.9721 -0.0000
vn 0.0000 0.9572 -0.2894
vn 0.0000 0.9661 -0.2583
# 94 vertex normals

vt 0.0000 0.0769 0.0000
vt 0.0000 0.0000 0.0000
vt 0.0769 0.0000 0.0000
vt 0.0769 0.0769 0.0000
vt 0.1538 0.0000 0.0000
vt 0.1538 0.0769 0.0000
vt 0.2308 0.0000 0.0000
vt 0.2308 0.0769 0.0000
vt 0.3077 0.0000 0.0000
vt 0.3077 0.0769 0.0000
vt 0.3846 0.0000 0.0000
vt 0.3846 0.0769 0.0000
vt 0.4615 0.0000 0.0000
vt 0.4615 0.0769 0.0000
vt 0.5385 0.0000 0.0000
vt 0.5385 0.0769 0.0000
vt 0.6154 0.0000 0.0000
vt 0.6154 0.0769 0.0000
vt 0.6923 0.0000 0.0000
vt 0.6923 0.0769 0.0000
vt 0.7692 0.0000 0.0000
vt 0.7692 0.0769 0.0000
vt 0.8462 0.0000 0.0000
vt 0.8462 0.0769 0.0000
vt 0.9231 0.0000 0.0000
vt 0.9231 0.0769 0.0000
vt 1.0000 0.0000 0.0000
vt 1.0000 0.0769 0.0000
vt 0.0000 0.1538 0.0000
vt 0.0769 0.1538 0.0000
vt 0.1538 0.1538 0.0000
vt 0.2308 0.1538 0.0000
vt 0.3077 0.1538 0.0000
vt 0.3846 0.1538 0.0000
vt 0.4615 0.1538 0.0000
vt 0.5385 0.1538 0.0000
vt 0.6154 0.1538 0.0000
vt 0.6923 0.1538 0.0000
vt 0.7692 0.1538 0.0000
vt 0.8462 0.1538 0.0000
vt 0.9231 0.1538 0.0000
vt 1.0000 0.1538 0.0000
vt 0.0000 0.2308 0.0000
vt 0.0769 0.2308 0.0000
vt 0.1538 0.2308 0.0000
vt 0.2308 0.2308 0.0000
vt 0.3077 0.2308 0.0000
vt 0.3846 0.2308 0.0000
vt 0.4615 0.2308 0.0000
vt 0.5385 0.2308 0.0000
vt 0.6154 0.2308 0.0000
vt 0.6923 0.2308 0.0000
vt 0.7692 0.2308 0.0000
vt 0.8462 0.2308 0.0000
vt 0.9231 0.2308 0.0000
vt 1.0000 0.2308 0.0000
vt 0.0000 0.3077 0.0000
vt 0.0769 0.3077 0.0000
vt 0.1538 0.3077 0.0000
vt 0.2308 0.3077 0.0000
vt 0.3077 0.3077 0.0000
vt 0.3846 0.3077 0.0000
vt 0.4615 0.3077 0.0000
vt 0.5385 0.3077 0.0000
vt 0.6154 0.3077 0.0000
vt 0.6923 0.3077 0.0000
vt 0.7692 0.3077 0.0000
vt 0.8462 0.3077 0.0000
vt 0.9231 0.3077 0.0000
vt 1.0000 0.3077 0.0000
vt 0.0000 0.3846 0.0000
vt 0.0769 0.3846 0.0000
vt 0.1538 0.3846 0.0000
vt 0.2308 0.3846 0.0000
vt 0.3077 0.3846 0.0000
vt 0.3846 0.3846 0.0000
vt 0.4615 0.3846 0.0000
vt 0.5385 0.3846 0.0000
vt 0.6154 0.3846 0.0000
vt 0.6923 0.3846 0.0000
vt 0.7692 0.3846 0.0000
vt 0.8462 0.3846 0.0000
vt 0.9231 0.3846 0.0000
vt 1.0000 0.3846 0.0000
vt 0.0000 0.4615 0.0000
vt 0.0769 0.4615 0.0000
vt 0.1538 0.4615 0.0000
vt 0.2308 0.4615 0.0000
vt 0.3077 0.4615 0.0000
vt 0.3846 0.4615 0.0000
vt 0.4615 0.4615 0.0000
vt 0.5385 0.4615 0.0000
vt 0.6154 0.4615 0.0000
vt 0.6923 0.4615 0.0000
vt 0.7692 0.4615 0.0000
vt 0.8462 0.4615 0.0000
vt 0.9231 0.4615 0.0000
vt 1.0000 0.4615 0.0000
vt 0.0000 0.5385 0.0000
vt 0.0769 0.5385 0.0000
vt 0.1538 0.5385 0.0000
vt 0.2308 0.5385 0.0000
vt 0.3077 0.5385 0.0000
vt 0.3846 0.5385 0.0000
vt 0.4615 0.5385 0.0000
vt 0.5385 0.5385 0.0000
vt 0.6154 0.5385 0.0000
vt 0.6923 0.5385 0.0000
vt 0.7692 0.5385 0.0000
vt 0.8462 0.5385 0.0000
vt 0.9231 0.5385 0.0000
vt 1.0000 0.5385 0.0000
vt 0.0000 0.6154 0.0000
vt 0.0769 0.6154 0.0000
vt 0.1538 0.6154 0.0000
vt 0.2308 0.6154 0.0000
vt 0.3077 0.6154 0.0000
vt 0.3846 0.6154 0.0000
vt 0.4615 0.6154 0.0000
vt 0.5385 0.6154 0.0000
vt 0.6154 0.6154 0.0000
vt 0.6923 0.6154 0.0000
vt 0.7692 0.6154 0.0000
vt 0.8462 0.6154 0.0000
vt 0.9231 0.6154 0.0000
vt 1.0000 0.6154 0.0000
vt 0.0000 0.6923 0.0000
vt 0.0769 0.6923 0.0000
vt 0.1538 0.6923 0.0000
vt 0.2308 0.6923 0.0000
vt 0.3077 0.6923 0.0000
vt 0.3846 0.6923 0.0000
vt 0.4615 0.6923 0.0000
vt 0.5385 0.6923 0.0000
vt 0.6154 0.6923 0.0000
vt 0.6923 0.6923 0.0000
vt 0.7692 0.6923 0.0000
vt 0.8462 0.6923 0.0000
vt 0.9231 0.6923 0.0000
vt 1.0000 0.6923 0.0000
vt 0.0000 0.7692 0.0000
vt 0.0769 0.7692 0.0000
vt 0.1538 0.7692 0.0000
vt 0.2308 0.7692 0.0000
vt 0.3077 0.7692 0.0000
vt 0.3846 0.7692 0.0000
vt 0.4615 0.7692 0.0000
vt 0.5385 0.7692 0.0000
vt 0.6154 0.7692 0.0000
vt 0.6923 0.7692 0.0000
vt 0.7692 0.7692 0.0000
vt 0.8462 0.7692 0.0000
vt 0.9231 0.7692 0.0000
vt 1.0000 0.7692 0.0000
vt 0.0000 0.8462 0.0000
vt 0.0769 0.8462 0.0000
vt 0.1538 0.8462 0.0000
vt 0.2308 0.8462 0.0000
vt 0.3077 0.8462 0.0000
vt 0.3846 0.8462 0.0000
vt 0.4615 0.8462 0.0000
vt 0.5385 0.8462 0.0000
vt 0.6154 0.8462 0.0000
vt 0.6923 0.8462 0.0000
vt 0.7692 0.8462 0.0000
vt 0.8462 0.8462 0.0000
vt 0.9231 0.8462 0.0000
vt 1.0000 0.8462 0.0000
vt 0.0000 0.9231 0.0000
vt 0.0769 0.9231 0.0000
vt 0.1538 0.9231 0.0000
vt 0.2308 0.9231 0.0000
vt 0.3077 0.9231 0.0000
vt 0.3846 0.9231 0.0000
vt 0.4615 0.9231 0.0000
vt 0.5385 0.9231 0.0000
vt 0.6154 0.9231 0.0000
vt 0.6923 0.9231 0.0000
vt 0.7692 0.9231 0.0000
vt 0.8462 0.9231 0.0000
vt 0.9231 0.9231 0.0000
vt 1.0000 0.9231 0.0000
vt 0.0000 1.0000 0.0000
vt 0.0769 1.0000 0.0000
vt 0.1538 1.0000 0.0000
vt 0.2308 1.0000 0.0000
vt 0.3077 1.0000 0.0000
vt 0.3846 1.0000 0.0000
vt 0.4615 1.0000 0.0000
vt 0.5385 1.0000 0.0000
vt 0.6154 1.0000 0.0000
vt 0.6923 1.0000 0.0000
vt 0.7692 1.0000 0.0000
vt 0.8462 1.0000 0.0000
vt 0.9231 1.0000 0.0000
vt 1.0000 1.0000 0.0000
# 196 texture coords

o Plane001
g Plane001
usemtl wire_153228153
s 1
f 1/1/1 2/2/1 3/3/1 4/4/1 
f 4/4/1 3/3/1 5/5/1 6/6/2 
f 6/6/2 5/5/1 7/7/1 8/8/3 
f 8/8/3 7/7/1 9/9/1 10/10/4 
f 10/10/4 9/9/1 11/11/5 12/12/1 
f 12/12/1 11/11/5 13/13/1 14/14/6 
f 14/14/6 13/13/1 15/15/1 16/16/1 
f 16/16/1 15/15/1 17/17/1 18/18/1 
f 18/18/1 17/17/1 19/19/1 20/20/1 
f 20/20/1 19/19/1 21/21/1 22/22/1 
f 22/22/1 21/21/1 23/23/1 24/24/7 
f 24/24/7 23/23/1 25/25/1 26/26/7 
f 26/26/7 25/25/1 27/27/1 28/28/1 
f 29/29/1 1/1/1 4/4/1 30/30/8 
f 30/30/8 4/4/1 6/6/2 31/31/9 
f 31/31/9 6/6/2 8/8/3 32/32/10 
f 32/32/10 8/8/3 10/10/4 33/33/11 
f 33/33/11 10/10/4 12/12/1 34/34/12 
f 34/34/12 12/12/1 14/14/6 35/35/13 
f 35/35/13 14/14/6 16/16/1 36/36/14 
f 36/36/14 16/16/1 18/18/1 37/37/1 
f 37/37/1 18/18/1 20/20/1 38/38/15 
f 38/38/15 20/20/1 22/22/1 39/39/16 
f 39/39/16 22/22/1 24/24/7 40/40/17 
f 40/40/17 24/24/7 26/26/7 41/41/18 
f 41/41/18 26/26/7 28/28/1 42/42/19 
f 43/43/1 29/29/1 30/30/8 44/44/20 
f 44/44/20 30/30/8 31/31/9 45/45/21 
f 45/45/21 31/31/9 32/32/10 46/46/22 
f 46/46/22 32/32/10 33/33/11 47/47/11 
f 47/47/11 33/33/11 34/34/12 48/48/23 
f 48/48/23 34/34/12 35/35/13 49/49/24 
f 49/49/24 35/35/13 36/36/14 50/50/14 
f 50/50/14 36/36/14 37/37/1 51/51/25 
f 51/51/25 37/37/1 38/38/15 52/52/26 
f 52/52/26 38/38/15 39/39/16 53/53/27 
f 53/53/27 39/39/16 40/40/17 54/54/28 
f 54/54/28 40/40/17 41/41/18 55/55/29 
f 55/55/29 41/41/18 42/42/19 56/56/19 
f 57/57/1 43/43/1 44/44/20 58/58/1 
f 58/58/1 44/44/20 45/45/21 59/59/30 
f 59/59/30 45/45/21 46/46/22 60/60/31 
f 60/60/31 46/46/22 47/47/11 61/61/1 
f 61/61/1 47/47/11 48/48/23 62/62/1 
f 62/62/1 48/48/23 49/49/24 63/63/32 
f 63/63/32 49/49/24 50/50/14 64/64/1 
f 64/64/1 50/50/14 51/51/25 65/65/1 
f 65/65/1 51/51/25 52/52/26 66/66/33 
f 66/66/33 52/52/26 53/53/27 67/67/34 
f 67/67/34 53/53/27 54/54/28 68/68/35 
f 68/68/35 54/54/28 55/55/29 69/69/36 
f 69/69/36 55/55/29 56/56/19 70/70/19 
f 71/71/1 57/57/1 58/58/1 72/72/1 
f 72/72/1 58/58/1 59/59/30 73/73/37 
f 73/73/37 59/59/30 60/60/31 74/74/37 
f 74/74/37 60/60/31 61/61/1 75/75/37 
f 75/75/37 61/61/1 62/62/1 76/76/1 
f 76/76/1 62/62/1 63/63/32 77/77/1 
f 77/77/1 63/63/32 64/64/1 78/78/1 
f 78/78/1 64/64/1 65/65/1 79/79/1 
f 79/79/1 65/65/1 66/66/33 80/80/1 
f 80/80/1 66/66/33 67/67/34 81/81/38 
f 81/81/38 67/67/34 68/68/35 82/82/39 
f 82/82/39 68/68/35 69/69/36 83/83/40 
f 83/83/40 69/69/36 70/70/19 84/84/41 
f 85/85/1 71/71/1 72/72/1 86/86/42 
f 86/86/42 72/72/1 73/73/37 87/87/43 
f 87/87/43 73/73/37 74/74/37 88/88/1 
f 88/88/1 74/74/37 75/75/37 89/89/44 
f 89/89/44 75/75/37 76/76/1 90/90/45 
f 90/90/45 76/76/1 77/77/1 91/91/46 
f 91/91/46 77/77/1 78/78/1 92/92/47 
f 92/92/47 78/78/1 79/79/1 93/93/48 
f 93/93/48 79/79/1 80/80/1 94/94/1 
f 94/94/1 80/80/1 81/81/38 95/95/1 
f 95/95/1 81/81/38 82/82/39 96/96/49 
f 96/96/49 82/82/39 83/83/40 97/97/50 
f 97/97/50 83/83/40 84/84/41 98/98/1 
f 99/99/1 85/85/1 86/86/42 100/100/1 
f 100/100/1 86/86/42 87/87/43 101/101/51 
f 101/101/51 87/87/43 88/88/1 102/102/51 
f 102/102/51 88/88/1 89/89/44 103/103/51 
f 103/103/51 89/89/44 90/90/45 104/104/52 
f 104/104/52 90/90/45 91/91/46 105/105/53 
f 105/105/53 91/91/46 92/92/47 106/106/54 
f 106/106/54 92/92/47 93/93/48 107/107/55 
f 107/107/55 93/93/48 94/94/1 108/108/56 
f 108/108/56 94/94/1 95/95/1 109/109/1 
f 109/109/1 95/95/1 96/96/49 110/110/57 
f 110/110/57 96/96/49 97/97/50 111/111/58 
f 111/111/58 97/97/50 98/98/1 112/112/59 
f 113/113/1 99/99/1 100/100/1 114/114/1 
f 114/114/1 100/100/1 101/101/51 115/115/60 
f 115/115/60 101/101/51 102/102/51 116/116/1 
f 116/116/1 102/102/51 103/103/51 117/117/1 
f 117/117/1 103/103/51 104/104/52 118/118/52 
f 118/118/52 104/104/52 105/105/53 119/119/61 
f 119/119/61 105/105/53 106/106/54 120/120/62 
f 120/120/62 106/106/54 107/107/55 121/121/63 
f 121/121/63 107/107/55 108/108/56 122/122/56 
f 122/122/56 108/108/56 109/109/1 123/123/64 
f 123/123/64 109/109/1 110/110/57 124/124/65 
f 124/124/65 110/110/57 111/111/58 125/125/66 
f 125/125/66 111/111/58 112/112/59 126/126/59 
f 127/127/1 113/113/1 114/114/1 128/128/67 
f 128/128/67 114/114/1 115/115/60 129/129/1 
f 129/129/1 115/115/60 116/116/1 130/130/68 
f 130/130/68 116/116/1 117/117/1 131/131/1 
f 131/131/1 117/117/1 118/118/52 132/132/1 
f 132/132/1 118/118/52 119/119/61 133/133/69 
f 133/133/69 119/119/61 120/120/62 134/134/70 
f 134/134/70 120/120/62 121/121/63 135/135/56 
f 135/135/56 121/121/63 122/122/56 136/136/56 
f 136/136/56 122/122/56 123/123/64 137/137/1 
f 137/137/1 123/123/64 124/124/65 138/138/71 
f 138/138/71 124/124/65 125/125/66 139/139/1 
f 139/139/1 125/125/66 126/126/59 140/140/59 
f 141/141/1 127/127/1 128/128/67 142/142/72 
f 142/142/72 128/128/67 129/129/1 143/143/73 
f 143/143/73 129/129/1 130/130/68 144/144/74 
f 144/144/74 130/130/68 131/131/1 145/145/74 
f 145/145/74 131/131/1 132/132/1 146/146/1 
f 146/146/1 132/132/1 133/133/69 147/147/75 
f 147/147/75 133/133/69 134/134/70 148/148/76 
f 148/148/76 134/134/70 135/135/56 149/149/77 
f 149/149/77 135/135/56 136/136/56 150/150/56 
f 150/150/56 136/136/56 137/137/1 151/151/1 
f 151/151/1 137/137/1 138/138/71 152/152/78 
f 152/152/78 138/138/71 139/139/1 153/153/1 
f 153/153/1 139/139/1 140/140/59 154/154/59 
f 155/155/42 141/141/1 142/142/72 156/156/1 
f 156/156/1 142/142/72 143/143/73 157/157/79 
f 157/157/79 143/143/73 144/144/74 158/158/80 
f 158/158/80 144/144/74 145/145/74 159/159/81 
f 159/159/81 145/145/74 146/146/1 160/160/82 
f 160/160/82 146/146/1 147/147/75 161/161/1 
f 161/161/1 147/147/75 148/148/76 162/162/83 
f 162/162/83 148/148/76 149/149/77 163/163/84 
f 163/163/84 149/149/77 150/150/56 164/164/1 
f 164/164/1 150/150/56 151/151/1 165/165/1 
f 165/165/1 151/151/1 152/152/78 166/166/78 
f 166/166/78 152/152/78 153/153/1 167/167/85 
f 167/167/85 153/153/1 154/154/59 168/168/59 
f 169/169/1 155/155/42 156/156/1 170/170/86 
f 170/170/86 156/156/1 157/157/79 171/171/1 
f 171/171/1 157/157/79 158/158/80 172/172/87 
f 172/172/87 158/158/80 159/159/81 173/173/87 
f 173/173/87 159/159/81 160/160/82 174/174/1 
f 174/174/1 160/160/82 161/161/1 175/175/88 
f 175/175/88 161/161/1 162/162/83 176/176/1 
f 176/176/1 162/162/83 163/163/84 177/177/89 
f 177/177/89 163/163/84 164/164/1 178/178/1 
f 178/178/1 164/164/1 165/165/1 179/179/1 
f 179/179/1 165/165/1 166/166/78 180/180/90 
f 180/180/90 166/166/78 167/167/85 181/181/91 
f 181/181/91 167/167/85 168/168/59 182/182/92 
f 183/183/1 169/169/1 170/170/86 184/184/1 
f 184/184/1 170/170/86 171/171/1 185/185/1 
f 185/185/1 171/171/1 172/172/87 186/186/1 
f 186/186/1 172/172/87 173/173/87 187/187/1 
f 187/187/1 173/173/87 174/174/1 188/188/1 
f 188/188/1 174/174/1 175/175/88 189/189/1 
f 189/189/1 175/175/88 176/176/1 190/190/93 
f 190/190/93 176/176/1 177/177/89 191/191/1 
f 191/191/1 177/177/89 178/178/1 192/192/1 
f 192/192/1 178/178/1 179/179/1 193/193/1 
f 193/193/1 179/179/1 180/180/90 194/194/1 
f 194/194/1 180/180/90 181/181/91 195/195/94 
f 195/195/94 181/181/91 182/182/92 196/196/1 
# 169 polygons

